<svg width="80" height="42" viewBox="0 0 80 42" fill="none" xmlns="http://www.w3.org/2000/svg">
<path d="M39.6471 13.8462L42.5882 19.6154H36.7059L39.6471 13.8462Z" fill="white"/>
<path fill-rule="evenodd" clip-rule="evenodd" d="M50.4083 21.912L39.764 0L29.1197 21.912H0.941176V24.9231H79.0588V21.912H50.4083ZM47.0657 22.0279L39.764 6.99685L32.4623 22.0279H47.0657Z" fill="white"/>
<path d="M7.29322 11.6194H14.641V12.5263C14.641 13.5484 14.4663 14.502 14.117 15.3873C13.7749 16.2726 13.2836 17.0499 12.643 17.7193C12.0025 18.3887 11.2383 18.9105 10.3503 19.2848C9.46226 19.659 8.47964 19.8462 7.4024 19.8462C6.28877 19.8462 5.27703 19.659 4.3672 19.2848C3.46464 18.9033 2.68583 18.3743 2.03075 17.6977C1.37567 17.0211 0.87344 16.2366 0.524064 15.3441C0.174688 14.4444 0 13.48 0 12.4507C0 11.4287 0.174688 10.4714 0.524064 9.57895C0.87344 8.67926 1.37567 7.89474 2.03075 7.22537C2.68583 6.54881 3.46464 6.02339 4.3672 5.64912C5.27703 5.26766 6.28877 5.07692 7.4024 5.07692C8.31224 5.07692 9.11289 5.17409 9.80436 5.36842C10.5031 5.56275 11.1036 5.82186 11.6058 6.14575C12.1081 6.46964 12.5339 6.82591 12.8832 7.21458C13.2326 7.59604 13.5238 7.97031 13.7567 8.33738L10.656 9.78408C10.3575 9.33063 9.94994 8.93477 9.43315 8.59649C8.92364 8.25821 8.24673 8.08907 7.4024 8.08907C6.81283 8.08907 6.27057 8.20423 5.77562 8.43455C5.28795 8.66487 4.86579 8.98156 4.50913 9.38462C4.15248 9.78048 3.87589 10.2447 3.67937 10.7773C3.49012 11.3027 3.3955 11.8605 3.3955 12.4507C3.3955 13.0481 3.49012 13.6095 3.67937 14.135C3.87589 14.6604 4.15248 15.1246 4.50913 15.5277C4.86579 15.9307 5.28795 16.2474 5.77562 16.4777C6.27057 16.7009 6.81283 16.8124 7.4024 16.8124C7.91919 16.8124 8.38866 16.7476 8.81082 16.6181C9.23299 16.4885 9.59692 16.3014 9.90262 16.0567C10.2156 15.812 10.4594 15.5241 10.6341 15.193C10.8161 14.8547 10.9253 14.484 10.9617 14.081H7.29322V11.6194Z" fill="white"/>
<path fill-rule="evenodd" clip-rule="evenodd" d="M17.7603 5.33603H23.6342C24.4713 5.33603 25.2173 5.50877 25.8724 5.85425C26.5275 6.19973 27.0443 6.69996 27.4228 7.35493C27.8085 8.0027 28.0014 8.77643 28.0014 9.67611C28.0014 10.5758 27.8377 11.3135 27.5101 11.8893C27.1898 12.4579 26.8041 12.8862 26.3528 13.1741C25.9015 13.4548 25.483 13.6239 25.0972 13.6815L28.6019 19.587H24.9335L21.8109 13.9298H21.0248V19.587H17.7603V5.33603ZM21.0248 11.695H22.466C23.0483 11.695 23.5578 11.5547 23.9945 11.274C24.4312 10.9933 24.6496 10.4966 24.6496 9.78408C24.6496 9.07152 24.4349 8.5785 24.0054 8.30499C23.576 8.02429 23.0701 7.88394 22.4878 7.88394H21.0248V11.695Z" fill="white"/>
<path d="M51.7081 19.587H54.9725L54.9771 8.76923L60.5516 19.587H65.028V5.33603H61.7635L61.7593 16.0943L56.1626 5.33603H51.7081V19.587Z" fill="white"/>
<path fill-rule="evenodd" clip-rule="evenodd" d="M68.8309 5.33603H73.1653C74.7011 5.33603 75.9712 5.64193 76.9757 6.25371C77.9874 6.8583 78.7444 7.69681 79.2467 8.76923C79.7489 9.84166 80 11.0688 80 12.4507C80 13.8399 79.7489 15.0706 79.2467 16.1431C78.7444 17.2155 77.9874 18.0576 76.9757 18.6694C75.9712 19.2812 74.7011 19.587 73.1653 19.587H68.8309V5.33603ZM72.0845 8.19703V16.726H72.8705C73.693 16.726 74.3736 16.5425 74.9122 16.1754C75.4508 15.8012 75.8548 15.2937 76.1241 14.6532C76.4007 14.0054 76.539 13.2785 76.539 12.4723C76.539 11.659 76.4043 10.9321 76.135 10.2915C75.873 9.64372 75.469 9.1327 74.9231 8.75844C74.3772 8.38417 73.693 8.19703 72.8705 8.19703H72.0845Z" fill="white"/>
<path d="M25.9265 27.6923H16.9412V42H25.9265V39.6045H19.662V35.9843H25.8387V33.6647H19.662V30.0878H25.9265V27.6923Z" fill="white"/>
<path d="M37.9672 27.6923H35.2244V42H43.3979V39.6045H37.9672V27.6923Z" fill="white"/>
<path fill-rule="evenodd" clip-rule="evenodd" d="M52.2414 27.6923H56.2348C57.7781 27.6923 59.0507 27.9994 60.0528 28.6136C61.0621 29.2206 61.8154 30.0625 62.3128 31.1392C62.8101 32.2159 63.0588 33.4479 63.0588 34.8353C63.0588 36.23 62.8101 37.4656 62.3128 38.5423C61.8154 39.619 61.0621 40.4645 60.0528 41.0787C59.0507 41.6929 57.7781 42 56.2348 42H52.2414V27.6923ZM54.9622 30.1094V39.5829H55.9935C56.937 39.5829 57.7123 39.3805 58.3193 38.9759C58.9337 38.564 59.3908 38.0003 59.6907 37.285C59.9979 36.5696 60.1515 35.7603 60.1515 34.857C60.1588 33.9465 60.0125 33.1336 59.7127 32.4182C59.4128 31.7028 58.952 31.1392 58.3303 30.7273C57.7159 30.3154 56.937 30.1094 55.9935 30.1094H54.9622Z" fill="white"/>
</svg>
