<svg width="54" height="42" viewBox="0 0 54 42" fill="none" xmlns="http://www.w3.org/2000/svg">
<path d="M21.1954 27.1085L8.52491 22.6424L0 32.2893L1.68687 0.247475L2.38791 26.4662L2.41031 26.4374L2.40643 26.5136L7.85201 20.3515L15.9457 23.2043L15.9061 23.1483L15.9174 23.1529L2.08126 0L21.1954 27.1085Z" fill="white"/>
<path d="M2.39637 1.7953L12.0129 20.0882L7.29127 18.3488L4.02233 22.3246L2.39637 1.7953Z" fill="white" fill-opacity="0.2"/>
<path d="M53.6662 13.2493V15.1651H49.2329V27.4042H47.1328V15.1651H42.8162V13.2493H53.6662ZM29.6219 13.2494V15.1651H20.8718V19.2016L27.0892 19.1567L27.1059 21.0723L21.7295 21.1111L24.5734 25.1692H29.6219V27.085H23.4237L18.7717 20.4472V13.2494H29.6219ZM40.2892 23.147C40.2892 22.0228 39.3007 21.1249 38.0995 21.1249H35.0123C32.635 21.1249 30.7225 19.3545 30.7225 17.1872C30.7225 15.0199 32.635 13.2493 35.0123 13.2493H41.3393V15.1651H35.0123C33.8111 15.1651 32.8226 16.0629 32.8226 17.1872C32.8226 18.3114 33.8111 19.2092 35.0123 19.2093H38.0995C40.4768 19.2093 42.3893 20.9797 42.3894 23.147C42.3894 25.3143 40.4769 27.0848 38.0995 27.0849H31.7726V25.1692H38.0995C39.3007 25.1692 40.2892 24.2712 40.2892 23.147Z" fill="white"/>
<path d="M26.5483 32.3752V33.8662H20.639V36.4361L24.8093 36.4061L24.8221 37.8971L20.639 37.927V40.509H26.5483V42H19.0046V32.3752H26.5483ZM33.7216 32.2644V40.509H39.6309V42H32.0872V32.2644H33.7216ZM52.3656 37.1875C52.3656 35.3532 50.7354 33.8662 48.7245 33.8662H46.8042V40.509H48.7245C50.7354 40.509 52.3656 39.0219 52.3656 37.1875ZM54 37.1875C54 39.8454 51.638 42 48.7245 42H45.1698V32.3752H48.7245C51.638 32.3752 54 34.5297 54 37.1875Z" fill="white"/>
</svg>
